<svg xmlns="http://www.w3.org/2000/svg" viewBox="0 0 64 64" fill="none">
  <defs>
    <linearGradient id="g" x1="8" y1="8" x2="56" y2="56" gradientUnits="userSpaceOnUse">
      <stop stop-color="#7C5CFF" />
      <stop offset="1" stop-color="#00D4FF" />
    </linearGradient>
  </defs>
  <rect x="6" y="6" width="52" height="52" rx="16" fill="url(#g)" />
  <path
    d="M22 40.5V23.5h6.4c1.9 0 3.4.4 4.4 1.3 1.1.9 1.6 2.1 1.6 3.7 0 1.7-.7 3-2.1 3.8l2.9 8.2h-4.6l-2.2-6.7H26v6.7h-4Zm4-10.2h2c1.5 0 2.3-.6 2.3-1.9 0-1.2-.8-1.8-2.3-1.8h-2v3.7Z"
    fill="rgba(255,255,255,0.92)"
  />
  <path
    d="M38.1 40.5V23.5h4l7 10.2V23.5h3.9v17h-3.9l-7-10.1v10.1h-4Z"
    fill="rgba(255,255,255,0.92)"
  />
</svg>

